# This file uses centimeters as units for non-parametric coordinates.

mtllib object.mtl
g default
v -3.252521 0.499504 -0.951057
v -3.252538 1.617538 -0.587785
v -3.252538 1.617538 0.587785
v -3.252521 0.499504 0.951057
v -3.252511 -0.191479 0.000000
v 3.252530 0.499602 -0.951057
v 3.252513 1.617636 -0.587785
v 3.252513 1.617636 0.587785
v 3.252530 0.499602 0.951057
v 3.252541 -0.191381 0.000000
v -3.252526 0.808521 0.000000
v 3.252526 0.808619 0.000000
v -0.000004 1.058570 0.769421
v -0.000012 1.617587 -0.000000
v 0.000010 0.154061 0.475528
v -0.000004 1.058570 -0.769421
v 0.000010 0.154061 -0.475528
v 0.005634 1.617587 -0.587785
v 0.116959 0.499554 -0.951057
v -0.006236 -0.191430 0.000000
v 0.023039 0.499553 0.951057
v -0.007643 1.617587 0.587785
vt 0.548284 0.007647
vt 0.373591 0.064409
vt 0.373591 0.248091
vt 0.548284 0.304853
vt 0.656250 0.156250
vt 0.375000 0.312500
vt 0.425000 0.312500
vt 0.475000 0.312500
vt 0.525000 0.312500
vt 0.575000 0.312500
vt 0.625000 0.312500
vt 0.375000 0.688440
vt 0.425000 0.688440
vt 0.475000 0.688440
vt 0.525000 0.688440
vt 0.575000 0.688440
vt 0.625000 0.688440
vt 0.548284 0.695147
vt 0.373591 0.751909
vt 0.373591 0.935591
vt 0.548284 0.992353
vt 0.656250 0.843750
vt 0.500000 0.150000
vt 0.500000 0.837500
vt 0.500000 0.500470
vt 0.450000 0.500470
vt 0.550000 0.500470
vt 0.400000 0.500470
vt 0.600000 0.500470
vt 0.425000 0.500796
vt 0.625000 0.507229
vt 0.375000 0.507229
vt 0.575000 0.500109
vt 0.525000 0.501801
vt 0.475000 0.500029
vn -0.000005 0.309017 -0.951057
vn -0.000005 0.309017 -0.951057
vn -0.000005 0.309017 -0.951057
vn -0.000015 1.000000 -0.000000
vn -0.000015 1.000000 -0.000000
vn -0.000015 1.000000 -0.000000
vn -0.000005 0.309017 0.951057
vn -0.000005 0.309017 0.951057
vn -0.000005 0.309017 0.951057
vn 0.000012 -0.809017 0.587785
vn 0.000012 -0.809017 0.587785
vn 0.000012 -0.809017 0.587785
vn 0.000012 -0.809017 -0.587785
vn 0.000012 -0.809017 -0.587785
vn 0.000012 -0.809017 -0.587785
vn -1.000000 -0.000015 0.000000
vn -1.000000 -0.000015 0.000000
vn -1.000000 -0.000015 0.000000
vn -1.000000 -0.000015 0.000000
vn -1.000000 -0.000015 0.000000
vn -1.000000 -0.000015 0.000000
vn 1.000000 0.000015 0.000000
vn 1.000000 0.000015 0.000000
vn 1.000000 0.000015 -0.000000
vn 1.000000 0.000015 0.000000
vn 1.000000 0.000015 -0.000000
vn 1.000000 0.000015 -0.000000
vn -0.000005 0.309017 0.951057
vn -0.000005 0.309017 0.951057
vn -0.000005 0.309017 0.951057
vn -0.000005 0.309017 0.951057
vn -0.000015 1.000000 -0.000000
vn -0.000015 1.000000 0.000000
vn -0.000015 1.000000 -0.000000
vn -0.000015 1.000000 -0.000000
vn 0.000012 -0.809017 0.587785
vn 0.000012 -0.809017 0.587785
vn 0.000012 -0.809017 0.587785
vn 0.000012 -0.809017 0.587785
vn -0.000005 0.309017 -0.951057
vn -0.000005 0.309017 -0.951057
vn -0.000005 0.309017 -0.951057
vn -0.000005 0.309017 -0.951057
vn 0.000012 -0.809017 -0.587785
vn 0.000012 -0.809017 -0.587785
vn 0.000012 -0.809017 -0.587785
vn 0.000012 -0.809017 -0.587785
s 1
g pCylinder1
usemtl initialShadingGroup
f 18/30/1 16/28/2 2/7/3
s 2
f 7/13/4 14/26/5 8/14/6
s 3
f 3/8/7 13/25/8 22/35/9
s 4
f 9/15/10 15/27/11 10/16/12
s 5
f 5/10/13 1/11/14 17/29/15
s 6
f 2/2/16 1/1/17 11/23/18
f 3/3/19 2/2/16 11/23/18
f 4/4/20 3/3/19 11/23/18
f 5/5/21 4/4/20 11/23/18
f 1/1/17 5/5/21 11/23/18
s 7
f 6/21/22 7/20/23 12/24/24
f 7/20/23 8/19/25 12/24/24
f 8/19/25 9/18/26 12/24/24
f 9/18/26 10/22/27 12/24/24
f 10/22/27 6/21/22 12/24/24
s 3
f 3/8/7 4/9/28 13/25/8
f 13/25/8 4/9/28 21/34/29
f 8/14/30 13/25/8 9/15/31
s 2
f 14/26/5 3/8/32 22/35/33
f 2/7/34 14/26/5 18/30/35
f 2/7/34 3/8/32 14/26/5
s 4
f 15/27/11 5/10/36 20/33/37
f 4/9/38 15/27/11 21/34/39
f 4/9/38 5/10/36 15/27/11
s 1
f 1/6/40 2/7/3 16/28/2
f 6/12/41 16/28/2 7/13/42
f 1/6/40 16/28/2 19/32/43
s 5
f 5/10/13 17/29/15 20/33/44
f 17/29/15 1/11/14 19/31/45
f 10/16/46 17/29/15 6/17/47
s 2
f 18/30/35 14/26/5 7/13/4
s 1
f 7/13/42 16/28/2 18/30/1
f 19/32/43 16/28/2 6/12/41
s 5
f 17/29/15 19/31/45 6/17/47
f 20/33/44 17/29/15 10/16/46
s 4
f 15/27/11 20/33/37 10/16/12
f 21/34/39 15/27/11 9/15/10
s 3
f 13/25/8 21/34/29 9/15/31
f 22/35/9 13/25/8 8/14/30
s 2
f 14/26/5 22/35/33 8/14/6
