# This file uses centimeters as units for non-parametric coordinates.

mtllib object2.mtl
g default
v -3.502975 0.610739 -0.936301
v -2.512180 1.169278 -0.639107
v -2.430508 1.164992 0.533615
v -3.370828 0.603803 0.961204
v -4.033648 0.261256 0.052746
v 3.258886 0.499696 -0.951057
v 3.225590 1.617235 -0.587785
v 3.225590 1.617235 0.587785
v 3.258886 0.499696 0.951057
v 3.279463 -0.190980 0.000000
v -3.170028 0.762013 -0.005569
v 3.249683 0.808576 0.000000
v -0.000004 0.599783 0.769421
v -0.000012 1.158800 -0.000000
v 0.000010 0.154061 0.475528
v -0.000004 0.599783 -0.769421
v 0.000010 0.154061 -0.475528
v 0.005634 1.158800 -0.587785
v 0.116959 0.499554 -0.951057
v -0.006236 -0.191430 0.000000
v 0.023039 0.040767 0.951057
v -0.007643 1.158800 0.587785
vt 0.548284 0.007647
vt 0.373591 0.064409
vt 0.373591 0.248091
vt 0.548284 0.304853
vt 0.656250 0.156250
vt 0.375000 0.312500
vt 0.425000 0.312500
vt 0.475000 0.312500
vt 0.525000 0.312500
vt 0.575000 0.312500
vt 0.625000 0.312500
vt 0.375000 0.688440
vt 0.425000 0.688440
vt 0.475000 0.688440
vt 0.525000 0.688440
vt 0.575000 0.688440
vt 0.625000 0.688440
vt 0.548284 0.695147
vt 0.373591 0.751909
vt 0.373591 0.935591
vt 0.548284 0.992353
vt 0.656250 0.843750
vt 0.500000 0.150000
vt 0.500000 0.837500
vt 0.500000 0.500470
vt 0.450000 0.500470
vt 0.550000 0.500470
vt 0.400000 0.500470
vt 0.600000 0.500470
vt 0.425000 0.500796
vt 0.625000 0.507229
vt 0.375000 0.507229
vt 0.575000 0.500109
vt 0.525000 0.501801
vt 0.475000 0.500029
vn -0.019389 0.309136 -0.950820
vn -0.010227 0.457090 -0.889362
vn 0.038927 0.382911 -0.922965
vn -0.140755 0.990044 -0.000252
vn -0.076201 0.997092 0.000456
vn -0.140649 0.990059 -0.000340
vn 0.031775 0.498147 0.866510
vn -0.008439 0.341184 0.939959
vn -0.034927 0.308397 0.950616
vn 0.021089 -0.871908 0.489216
vn -0.035153 -0.927405 0.372403
vn 0.000081 -0.809115 0.587650
vn -0.078092 -0.907799 -0.412070
vn -0.065073 -0.910706 -0.407898
vn -0.036716 -0.836409 -0.546875
vn -0.499332 0.865580 0.037939
vn -0.499332 0.865580 0.037939
vn -0.499332 0.865580 0.037939
vn -0.499332 0.865580 0.037939
vn -0.499332 0.865580 0.037939
vn -0.499332 0.865580 0.037939
vn 0.999556 0.029780 -0.000000
vn 0.999556 0.029780 -0.000000
vn 0.999556 0.029780 0.000000
vn 0.999556 0.029780 0.000000
vn 0.999556 0.029780 0.000001
vn 0.999556 0.029780 0.000000
vn 0.050241 0.485366 0.872866
vn 0.004587 0.309185 0.950991
vn -0.043560 0.307775 0.950462
vn -0.043532 0.307580 0.950526
vn 0.003106 0.999992 0.002545
vn -0.081170 0.996700 -0.001054
vn 0.003533 0.999991 0.002507
vn -0.076474 0.997071 -0.000735
vn -0.069531 -0.897323 0.435864
vn -0.042448 -0.808023 0.587620
vn -0.079549 -0.943526 0.321606
vn -0.014065 -0.972829 -0.231096
vn 0.044129 0.438810 -0.897496
vn -0.042756 0.323366 -0.945307
vn -0.043621 0.307957 -0.950400
vn 0.011744 0.878665 -0.477295
vn -0.051479 -0.807623 -0.587448
vn -0.014229 -0.807266 -0.590016
vn 0.000081 -0.809115 -0.587650
vn 0.000066 -0.809117 -0.587648
s 1
g pCylinder1
usemtl initialShadingGroup
f 18/30/1 16/28/2 2/7/3
s 2
f 7/13/4 14/26/5 8/14/6
s 3
f 3/8/7 13/25/8 22/35/9
s 4
f 9/15/10 15/27/11 10/16/12
s 5
f 5/10/13 1/11/14 17/29/15
s 6
f 2/2/16 1/1/17 11/23/18
f 3/3/19 2/2/16 11/23/18
f 4/4/20 3/3/19 11/23/18
f 5/5/21 4/4/20 11/23/18
f 1/1/17 5/5/21 11/23/18
s 7
f 6/21/22 7/20/23 12/24/24
f 7/20/23 8/19/25 12/24/24
f 8/19/25 9/18/26 12/24/24
f 9/18/26 10/22/27 12/24/24
f 10/22/27 6/21/22 12/24/24
s 3
f 3/8/7 4/9/28 13/25/8
f 13/25/8 4/9/28 21/34/29
f 8/14/30 13/25/8 9/15/31
s 2
f 14/26/5 3/8/32 22/35/33
f 2/7/34 14/26/5 18/30/35
f 2/7/34 3/8/32 14/26/5
s 4
f 15/27/11 5/10/36 20/33/37
f 4/9/38 15/27/11 21/34/39
f 4/9/38 5/10/36 15/27/11
s 1
f 1/6/40 2/7/3 16/28/2
f 6/12/41 16/28/2 7/13/42
f 1/6/40 16/28/2 19/32/43
s 5
f 5/10/13 17/29/15 20/33/44
f 17/29/15 1/11/14 19/31/45
f 10/16/46 17/29/15 6/17/47
s 2
f 18/30/35 14/26/5 7/13/4
s 1
f 7/13/42 16/28/2 18/30/1
f 19/32/43 16/28/2 6/12/41
s 5
f 17/29/15 19/31/45 6/17/47
f 20/33/44 17/29/15 10/16/46
s 4
f 15/27/11 20/33/37 10/16/12
f 21/34/39 15/27/11 9/15/10
s 3
f 13/25/8 21/34/29 9/15/31
f 22/35/9 13/25/8 8/14/30
s 2
f 14/26/5 22/35/33 8/14/6
